<svg xmlns="http://www.w3.org/2000/svg" version="1.1" xmlns:xlink="http://www.w3.org/1999/xlink" xmlns:svgjs="http://svgjs.com/svgjs" width="300" height="150" preserveAspectRatio="none" viewBox="0 0 300 150"><g mask="url(&quot;#SvgjsMask1076&quot;)" fill="none"><rect width="300" height="150" x="0" y="0" fill="rgba(255, 170, 103, 1)"></rect><path d="M0,100.11C19.136,101.95,37.766,94.3,54.306,84.502C71.287,74.442,87.411,61.616,95.425,43.579C103.402,25.623,101.25,5.29,98.117,-14.107C95.028,-33.227,91.408,-53.67,77.533,-67.183C64,-80.363,42.924,-79.192,25.04,-85.278C6.16,-91.703,-10.939,-107.718,-30.523,-103.953C-50.344,-100.142,-62.955,-81.256,-75.998,-65.853C-88.907,-50.608,-103.574,-35.059,-105.683,-15.195C-107.768,4.442,-97.89,23.216,-87.221,39.832C-77.576,54.853,-62.669,64.516,-47.984,74.665C-32.782,85.171,-18.394,98.341,0,100.11" fill="#ff9643"></path><path d="M300 233.776C315.309 231.983 326.087 219.075 338.671 210.174 350.633 201.713 364.969 195.738 371.973 182.869 379.187 169.615 381.30899999999997 153.457 377.486 138.859 373.832 124.906 362.105 115.182 351.645 105.25 342.094 96.182 331.539 88.98400000000001 319.451 83.756 305.92 77.904 292.092 71.555 277.437 73.156 261.366 74.912 243.933 80.085 234.288 93.06 224.74599999999998 105.896 229.09300000000002 123.69200000000001 228.00799999999998 139.649 227.012 154.295 223.507 168.882 228.188 182.796 233.163 197.583 242.311 210.941 255.03199999999998 219.97199999999998 268.082 229.236 284.105 235.638 300 233.776" fill="#ffbe8b"></path></g><defs><mask id="SvgjsMask1076"><rect width="300" height="150" fill="#ffffff"></rect></mask></defs></svg>