<svg xmlns="http://www.w3.org/2000/svg" version="1.1" xmlns:xlink="http://www.w3.org/1999/xlink" xmlns:svgjs="http://svgjs.com/svgjs" width="300" height="150" preserveAspectRatio="none" viewBox="0 0 300 150"><g mask="url(&quot;#SvgjsMask1057&quot;)" fill="none"><rect width="300" height="150" x="0" y="0" fill="rgba(15, 25, 46, 1)"></rect><path d="M0,134.08C24.704,133.57,46.544,116.707,63.379,98.62C78.081,82.825,78.395,59.522,87.574,39.994C96.893,20.168,116.398,4.948,117.685,-16.921C119.066,-40.39,111.043,-65.152,94.759,-82.109C78.725,-98.806,53.707,-100.761,31.363,-106.813C9.511,-112.732,-12.432,-122.637,-34.38,-117.087C-56.641,-111.457,-72.106,-92.787,-88.336,-76.543C-105.752,-59.112,-126.315,-42.92,-132.353,-19.03C-138.636,5.832,-134.246,33.21,-121.73,55.592C-109.647,77.201,-85.891,87.856,-65.083,101.272C-44.242,114.709,-24.792,134.592,0,134.08" fill="#0a101e"></path><path d="M300 224.564C313.673 223.03199999999998 320.479 207.312 332.176 200.067 344.15999999999997 192.644 362.882 194.2 369.289 181.643 375.659 169.157 366.551 154.398 362.29200000000003 141.044 358.669 129.682 353.888 119.078 346.382 109.81 338.666 100.282 329.951 91.369 318.505 86.976 306.508 82.371 292.698 79.763 280.809 84.64 269.216 89.39500000000001 264.245 102.465 256.581 112.378 249.398 121.669 241.735 130.123 237.253 140.978 231.625 154.609 222.083 169.403 227.352 183.177 232.60399999999998 196.90699999999998 250.05599999999998 200.563 262.829 207.839 274.879 214.704 286.218 226.10899999999998 300 224.564" fill="#14223e"></path></g><defs><mask id="SvgjsMask1057"><rect width="300" height="150" fill="#ffffff"></rect></mask></defs></svg>