<svg xmlns="http://www.w3.org/2000/svg" version="1.1" xmlns:xlink="http://www.w3.org/1999/xlink" xmlns:svgjs="http://svgjs.com/svgjs" width="300" height="150" preserveAspectRatio="none" viewBox="0 0 300 150"><g mask="url(&quot;#SvgjsMask1098&quot;)" fill="none"><rect width="300" height="150" x="0" y="0" fill="rgba(34, 33, 33, 1)"></rect><path d="M0,106.716C22.028,108.381,45.903,112.284,64.639,100.58C83.43,88.841,87.516,64.202,98.684,45.067C111.337,23.387,135.899,5.712,134.639,-19.358C133.376,-44.487,110.068,-62.15,92.397,-80.062C75.728,-96.959,58.693,-116.304,35.262,-120.091C12.53,-123.765,-6.641,-103.925,-29.283,-99.73C-55.687,-94.838,-87.822,-111.309,-107.968,-93.555C-127.704,-76.163,-124.87,-43.805,-122.471,-17.609C-120.395,5.056,-106.918,23.936,-95.408,43.571C-85.048,61.244,-75.735,79.958,-58.652,91.264C-41.444,102.653,-20.577,105.161,0,106.716" fill="#181717"></path><path d="M300 247.353C318.26 246.018 333.569 235.674 350.343 228.336 370.653 219.452 396.478 218.09699999999998 408.883 199.725 421.523 181.006 421.505 154.98 414.34000000000003 133.56 407.594 113.392 386.538 103.084 371.52 88.027 357.739 74.21 347.651 56.468 329.735 48.732 310.629 40.482 288.46 36.903000000000006 268.776 43.66 249.387 50.316 236.142 67.748 224.72899999999998 84.777 214.332 100.28999999999999 210.099 118.231 206.517 136.559 202.75400000000002 155.813 196.329 175.819 203.357 194.135 210.53300000000002 212.837 227.14600000000002 226.397 244.69299999999998 236.059 261.516 245.32299999999998 280.846 248.753 300 247.353" fill="#2c2b2b"></path></g><defs><mask id="SvgjsMask1098"><rect width="300" height="150" fill="#ffffff"></rect></mask></defs></svg>