<svg xmlns="http://www.w3.org/2000/svg" version="1.1" xmlns:xlink="http://www.w3.org/1999/xlink" xmlns:svgjs="http://svgjs.com/svgjs" width="300" height="150" preserveAspectRatio="none" viewBox="0 0 300 150"><g mask="url(&quot;#SvgjsMask1030&quot;)" fill="none"><rect width="300" height="150" x="0" y="0" fill="rgba(133, 133, 133, 1)"></rect><path d="M0,112.24C20.995,110.706,37.987,97.285,57.588,89.608C83.001,79.655,115.941,82.263,132.307,60.423C148.807,38.405,148.693,5.937,139.8,-20.1C131.387,-44.733,103.718,-55.442,86.169,-74.666C69.226,-93.226,61.429,-120.819,38.489,-131.081C14.65,-141.745,-15.411,-142.964,-38.269,-130.332C-60.422,-118.089,-65.596,-89.449,-77.376,-67.047C-86.424,-49.84,-92.573,-32.518,-99.298,-14.277C-108.025,9.394,-130.445,32.034,-122.763,56.064C-115.195,79.736,-85.86,88.097,-63.262,98.438C-43.23,107.605,-21.971,113.845,0,112.24" fill="#575757"></path><path d="M300 253.225C318.579 249.292 330.567 232.483 347.56 224.005 367.44 214.086 398.505 219.40699999999998 408.021 199.33100000000002 417.497 179.34 396.209 158.053 388.685 137.249 382.801 120.97800000000001 376.665 105.844 368.663 90.503 358.133 70.316 355.54 41.352999999999994 334.338 33.056 313.459 24.885999999999996 290.356 40.53 271.349 52.422 255.489 62.345 245.989 78.731 236.027 94.56700000000001 227.447 108.207 223.881 123.362 217.43200000000002 138.129 208.17000000000002 159.337 185.673 177.543 189.848 200.305 193.95499999999998 222.695 216.94 237.457 237.459 247.315 256.724 256.571 279.09 257.652 300 253.225" fill="#b4b4b4"></path></g><defs><mask id="SvgjsMask1030"><rect width="300" height="150" fill="#ffffff"></rect></mask></defs></svg>